SolidWorks IGES file using analytic representation for surfaces         S      1
1H,,1H;,12HMODEL.SLDPRT,30HC:\Users\KNG\Desktop\MODEL.IGS,15HSolidWorks G      1
2022,15HSolidWorks 2022,32,308,15,308,15,12HMODEL.SLDPRT,1.,2,2HMM,50,  G      2
0.125,13H240331.174433,1E-08,499990.,3HKNG,,11,0,13H240331.174433;      G      3
     314       1       0       0       0                        00000200D      1
     314       0       8       1       0                               0D      2
     502       2       0       0       0                        00010000D      3
     502       0       0       1       1                               0D      4
     124       3       0       0       0                        00000000D      5
     124       0       0       3       0                               0D      6
     100       6       0       0       0               5        00010000D      7
     100       0       0       1       0                               0D      8
     124       7       0       0       0                        00000000D      9
     124       0       0       3       0                               0D     10
     100      10       0       0       0               9        00010000D     11
     100       0       0       1       0                               0D     12
     504      11       0       0       0                        00010000D     13
     504       0       0       1       1                               0D     14
     110      12       0       0       0                        01010000D     15
     110       0       0       1       0                               0D     16
     110      13       0       0       0                        01010000D     17
     110       0       0       1       0                               0D     18
     120      14       0       0       0                        01010000D     19
     120       0      -1       1       0                               0D     20
     508      15       0       0       0                        00010000D     21
     508       0       0       1       1                               0D     22
     508      16       0       0       0                        00010000D     23
     508       0       0       1       1                               0D     24
     510      17       0       0       0                        00010000D     25
     510       0      -1       1       1                               0D     26
     116      18       0       0       0                        00010000D     27
     116       0       0       1       0                               0D     28
     123      19       0       0       0                        00010200D     29
     123       0       0       1       0                               0D     30
     123      20       0       0       0                        00010200D     31
     123       0       0       1       0                               0D     32
     190      21       0       0       0                        00010000D     33
     190       0      -1       1       1                               0D     34
     508      22       0       0       0                        00010000D     35
     508       0       0       1       1                               0D     36
     510      23       0       0       0                        00010000D     37
     510       0      -1       1       1                               0D     38
     116      24       0       0       0                        00010000D     39
     116       0       0       1       0                               0D     40
     123      25       0       0       0                        00010200D     41
     123       0       0       1       0                               0D     42
     123      26       0       0       0                        00010200D     43
     123       0       0       1       0                               0D     44
     190      27       0       0       0                        00010000D     45
     190       0      -1       1       1                               0D     46
     508      28       0       0       0                        00010000D     47
     508       0       0       1       1                               0D     48
     510      29       0       0       0                        00010000D     49
     510       0      -1       1       1                               0D     50
     514      30       0       0       0                        00010000D     51
     514       0       0       1       1                               0D     52
     186      31       0       0       0                        00000000D     53
     186       0       0       1       0                               0D     54
     124      32       0       0       0                        00000000D     55
     124       0       0       3       0                               0D     56
     100      35       0       0       0              55        00000000D     57
     100       0       0       1       0                               0D     58
     124      36       0       0       0                        00000000D     59
     124       0       0       3       0                               0D     60
     100      39       0       0       0              59        00000000D     61
     100       0       0       1       0                               0D     62
314,79.2156862745098,81.9607843137255,93.3333333333333,;               1P      1
502,0;                                                                 3P      2
124,1.40271576953299E-14,1.,0.,0.,-6.12323399573677E-17,               5P      3
8.58915688636046E-31,1.,0.,1.,-1.40271576953299E-14,                   5P      4
6.12323399573677E-17,0.;                                               5P      5
100,0.,0.,0.,26.305432258,0.,26.305432258,0.;                          7P      6
124,1.40271576953299E-14,1.,0.,-29.,-6.12323399573677E-17,             9P      7
8.58915688636046E-31,1.,29.,1.,-1.40271576953299E-14,                  9P      8
6.12323399573677E-17,4.06787573164567E-13;                             9P      9
100,0.,0.,29.,26.305432258,29.,26.305432258,29.;                      11P     10
504,2,7,3,0,3,0,11,3,0,3,0;                                           13P     11
110,0.,29.,0.,0.,-971.,0.;                                            15P     12
110,0.,0.,-26.305432258,0.,29.,-26.305432258;                         17P     13
120,15,17,0.,6.28318530717959;                                        19P     14
508,1,0,13,1,1,0;                                                     21P     15
508,1,0,13,2,0,0;                                                     23P     16
510,19,2,1,21,23;                                                     25P     17
116,0.,29.,0.,;                                                       27P     18
123,0.,1.,0.;                                                         29P     19
123,-0.707106781,0.,0.707106781;                                      31P     20
190,27,29,31;                                                         33P     21
508,1,0,13,2,1,0;                                                     35P     22
510,33,1,1,35;                                                        37P     23
116,0.,0.,0.,;                                                        39P     24
123,0.,1.,0.;                                                         41P     25
123,-0.707106781,0.,0.707106781;                                      43P     26
190,39,41,43;                                                         45P     27
508,1,0,13,1,0,0;                                                     47P     28
510,45,1,1,47;                                                        49P     29
514,3,25,1,37,1,49,1;                                                 51P     30
186,51,1,0;                                                           53P     31
124,6.12323399573677E-17,-1.,0.,29.,6.12323399573677E-17,             55P     32
3.74939945665464E-33,-1.,29.,1.,6.12323399573677E-17,                 55P     33
6.12323399573677E-17,-1.77573785876366E-15;                           55P     34
100,0.,0.,29.,26.305432258,29.,26.305432258,29.;                      57P     35
124,1.40271576953299E-14,1.,0.,0.,-6.12323399573677E-17,              59P     36
8.58915688636046E-31,1.,0.,1.,-1.40271576953299E-14,                  59P     37
6.12323399573677E-17,0.;                                              59P     38
100,0.,0.,0.,26.305432258,0.,26.305432258,0.;                         61P     39
S      1G      3D     62P     39                                        T      1
